<mxfile host="app.diagrams.net" agent="Mozilla/5.0 (Windows NT 10.0; Win64; x64) AppleWebKit/537.36 (KHTML, like Gecko) Chrome/130.0.0.0 Safari/537.36" version="24.8.3">
  <diagram name="Halaman-1" id="-X-AiUZCctMBgFtzxaE1">
    <mxGraphModel dx="246" dy="106" grid="1" gridSize="10" guides="1" tooltips="1" connect="1" arrows="1" fold="1" page="1" pageScale="1" pageWidth="827" pageHeight="1169" math="0" shadow="0">
      <root>
        <mxCell id="0" />
        <mxCell id="1" parent="0" />
        <mxCell id="OKE4GluARe9yTBWVtAhr-1" value="Gambar Stuktur Tampilan Menu" style="text;html=1;align=center;verticalAlign=middle;whiteSpace=wrap;rounded=0;fontStyle=1" vertex="1" parent="1">
          <mxGeometry x="40" y="40" width="190" height="30" as="geometry" />
        </mxCell>
        <mxCell id="OKE4GluARe9yTBWVtAhr-2" value="Super Admin" style="rounded=0;whiteSpace=wrap;html=1;" vertex="1" parent="1">
          <mxGeometry x="80" y="120" width="120" height="60" as="geometry" />
        </mxCell>
        <mxCell id="OKE4GluARe9yTBWVtAhr-3" value="Administrator" style="rounded=0;whiteSpace=wrap;html=1;" vertex="1" parent="1">
          <mxGeometry x="80" y="440" width="120" height="60" as="geometry" />
        </mxCell>
        <mxCell id="OKE4GluARe9yTBWVtAhr-4" value="Administrator" style="rounded=0;whiteSpace=wrap;html=1;" vertex="1" parent="1">
          <mxGeometry x="80" y="760" width="120" height="60" as="geometry" />
        </mxCell>
        <mxCell id="OKE4GluARe9yTBWVtAhr-6" value="" style="endArrow=none;html=1;rounded=0;entryX=0;entryY=0.5;entryDx=0;entryDy=0;" edge="1" parent="1" target="OKE4GluARe9yTBWVtAhr-2">
          <mxGeometry width="50" height="50" relative="1" as="geometry">
            <mxPoint x="40" y="800" as="sourcePoint" />
            <mxPoint x="60" y="170" as="targetPoint" />
            <Array as="points">
              <mxPoint x="40" y="150" />
            </Array>
          </mxGeometry>
        </mxCell>
        <mxCell id="OKE4GluARe9yTBWVtAhr-7" value="" style="endArrow=none;html=1;rounded=0;exitX=0.007;exitY=0.665;exitDx=0;exitDy=0;exitPerimeter=0;" edge="1" parent="1" source="OKE4GluARe9yTBWVtAhr-4">
          <mxGeometry width="50" height="50" relative="1" as="geometry">
            <mxPoint x="80" y="801" as="sourcePoint" />
            <mxPoint x="40" y="800" as="targetPoint" />
          </mxGeometry>
        </mxCell>
        <mxCell id="OKE4GluARe9yTBWVtAhr-9" value="" style="endArrow=none;html=1;rounded=0;entryX=0;entryY=0.5;entryDx=0;entryDy=0;" edge="1" parent="1" target="OKE4GluARe9yTBWVtAhr-3">
          <mxGeometry width="50" height="50" relative="1" as="geometry">
            <mxPoint x="40" y="470" as="sourcePoint" />
            <mxPoint x="70" y="460" as="targetPoint" />
          </mxGeometry>
        </mxCell>
        <mxCell id="OKE4GluARe9yTBWVtAhr-10" value="Beranda" style="rounded=0;whiteSpace=wrap;html=1;" vertex="1" parent="1">
          <mxGeometry x="80" y="200" width="120" height="60" as="geometry" />
        </mxCell>
        <mxCell id="OKE4GluARe9yTBWVtAhr-22" value="" style="edgeStyle=orthogonalEdgeStyle;rounded=0;orthogonalLoop=1;jettySize=auto;html=1;" edge="1" parent="1" source="OKE4GluARe9yTBWVtAhr-13" target="OKE4GluARe9yTBWVtAhr-17">
          <mxGeometry relative="1" as="geometry" />
        </mxCell>
        <mxCell id="OKE4GluARe9yTBWVtAhr-13" value="Trasnsaksi surat" style="whiteSpace=wrap;html=1;rounded=0;" vertex="1" parent="1">
          <mxGeometry x="240" y="200" width="144" height="60" as="geometry" />
        </mxCell>
        <mxCell id="OKE4GluARe9yTBWVtAhr-15" value="" style="endArrow=none;html=1;rounded=0;exitX=1;exitY=0.5;exitDx=0;exitDy=0;entryX=0;entryY=0.5;entryDx=0;entryDy=0;" edge="1" parent="1" source="OKE4GluARe9yTBWVtAhr-10" target="OKE4GluARe9yTBWVtAhr-13">
          <mxGeometry width="50" height="50" relative="1" as="geometry">
            <mxPoint x="230" y="260" as="sourcePoint" />
            <mxPoint x="280" y="210" as="targetPoint" />
          </mxGeometry>
        </mxCell>
        <mxCell id="OKE4GluARe9yTBWVtAhr-17" value="Laporan" style="whiteSpace=wrap;html=1;rounded=0;" vertex="1" parent="1">
          <mxGeometry x="420" y="200" width="120" height="60" as="geometry" />
        </mxCell>
        <mxCell id="OKE4GluARe9yTBWVtAhr-19" value="" style="endArrow=none;html=1;rounded=0;exitX=1;exitY=0.5;exitDx=0;exitDy=0;entryX=0;entryY=0.5;entryDx=0;entryDy=0;" edge="1" parent="1" source="OKE4GluARe9yTBWVtAhr-13" target="OKE4GluARe9yTBWVtAhr-17">
          <mxGeometry width="50" height="50" relative="1" as="geometry">
            <mxPoint x="410" y="230" as="sourcePoint" />
            <mxPoint x="450" y="230" as="targetPoint" />
          </mxGeometry>
        </mxCell>
        <mxCell id="OKE4GluARe9yTBWVtAhr-20" value="Pengaturan" style="whiteSpace=wrap;html=1;rounded=0;" vertex="1" parent="1">
          <mxGeometry x="580" y="200" width="120" height="60" as="geometry" />
        </mxCell>
        <mxCell id="OKE4GluARe9yTBWVtAhr-23" value="" style="endArrow=none;html=1;rounded=0;exitX=1;exitY=0.5;exitDx=0;exitDy=0;entryX=0;entryY=0.5;entryDx=0;entryDy=0;" edge="1" parent="1" source="OKE4GluARe9yTBWVtAhr-17" target="OKE4GluARe9yTBWVtAhr-20">
          <mxGeometry width="50" height="50" relative="1" as="geometry">
            <mxPoint x="550" y="230" as="sourcePoint" />
            <mxPoint x="586" y="230" as="targetPoint" />
          </mxGeometry>
        </mxCell>
        <mxCell id="OKE4GluARe9yTBWVtAhr-25" value="Trasnsaksi surat" style="whiteSpace=wrap;html=1;rounded=0;" vertex="1" parent="1">
          <mxGeometry x="150" y="320" width="144" height="60" as="geometry" />
        </mxCell>
        <mxCell id="OKE4GluARe9yTBWVtAhr-26" value="Trasnsaksi surat" style="whiteSpace=wrap;html=1;rounded=0;" vertex="1" parent="1">
          <mxGeometry x="320" y="320" width="144" height="60" as="geometry" />
        </mxCell>
        <mxCell id="OKE4GluARe9yTBWVtAhr-28" value="" style="endArrow=none;html=1;rounded=0;entryX=0.513;entryY=0.99;entryDx=0;entryDy=0;entryPerimeter=0;" edge="1" parent="1" target="OKE4GluARe9yTBWVtAhr-13">
          <mxGeometry width="50" height="50" relative="1" as="geometry">
            <mxPoint x="314" y="290" as="sourcePoint" />
            <mxPoint x="300" y="280" as="targetPoint" />
          </mxGeometry>
        </mxCell>
      </root>
    </mxGraphModel>
  </diagram>
</mxfile>
